<svg width="12" height="12" viewBox="0 0 12 12" fill="none" xmlns="http://www.w3.org/2000/svg">
<path fill-rule="evenodd" clip-rule="evenodd" d="M7.20002 4.2C7.04089 4.2 6.88828 4.13679 6.77576 4.02426C6.66324 3.91174 6.60002 3.75913 6.60002 3.6C6.60002 3.44087 6.66324 3.28826 6.77576 3.17574C6.88828 3.06321 7.04089 3 7.20002 3H10.2C10.3592 3 10.5118 3.06321 10.6243 3.17574C10.7368 3.28826 10.8 3.44087 10.8 3.6V6.6C10.8 6.75913 10.7368 6.91174 10.6243 7.02426C10.5118 7.13679 10.3592 7.2 10.2 7.2C10.0409 7.2 9.88828 7.13679 9.77576 7.02426C9.66324 6.91174 9.60003 6.75913 9.60003 6.6V5.0484L7.02422 7.6242C6.91171 7.73668 6.75912 7.79987 6.60002 7.79987C6.44093 7.79987 6.28834 7.73668 6.17583 7.6242L4.80002 6.2484L2.22422 8.8242C2.11106 8.9335 1.9595 8.99397 1.80218 8.9926C1.64487 8.99124 1.49438 8.92814 1.38313 8.81689C1.27189 8.70565 1.20879 8.55516 1.20742 8.39784C1.20605 8.24052 1.26653 8.08896 1.37582 7.9758L4.37582 4.9758C4.48834 4.86332 4.64093 4.80013 4.80002 4.80013C4.95912 4.80013 5.11171 4.86332 5.22422 4.9758L6.60002 6.3516L8.75163 4.2H7.20002Z" fill="#24F07D"/>
</svg>
