<svg width="12" height="12" viewBox="0 0 12 12" fill="none" xmlns="http://www.w3.org/2000/svg">
<path fill-rule="evenodd" clip-rule="evenodd" d="M7.20002 7.80001C7.04089 7.80001 6.88828 7.86323 6.77576 7.97575C6.66324 8.08827 6.60002 8.24088 6.60002 8.40001C6.60002 8.55914 6.66324 8.71175 6.77576 8.82428C6.88828 8.9368 7.04089 9.00001 7.20002 9.00001H10.2C10.3592 9.00001 10.5118 8.9368 10.6243 8.82428C10.7368 8.71175 10.8 8.55914 10.8 8.40001V5.40001C10.8 5.24088 10.7368 5.08827 10.6243 4.97575C10.5118 4.86323 10.3592 4.80001 10.2 4.80001C10.0409 4.80001 9.88828 4.86323 9.77576 4.97575C9.66324 5.08827 9.60003 5.24088 9.60003 5.40001V6.95161L7.02422 4.37581C6.91171 4.26333 6.75912 4.20014 6.60002 4.20014C6.44093 4.20014 6.28834 4.26333 6.17583 4.37581L4.80002 5.75161L2.22422 3.17581C2.11106 3.06652 1.9595 3.00604 1.80218 3.00741C1.64487 3.00877 1.49438 3.07188 1.38313 3.18312C1.27189 3.29437 1.20879 3.44485 1.20742 3.60217C1.20605 3.75949 1.26653 3.91105 1.37582 4.02421L4.37582 7.02421C4.48834 7.13669 4.64093 7.19988 4.80002 7.19988C4.95912 7.19988 5.11171 7.13669 5.22422 7.02421L6.60002 5.64841L8.75163 7.80001H7.20002Z" fill="#FE4219"/>
</svg>
